<?xml version="1.0" encoding="UTF-8"?>
<svg width="500" height="500" viewBox="0 0 500 500" fill="none" xmlns="http://www.w3.org/2000/svg">
  <!-- Background -->
  <rect width="500" height="500" fill="#080C14"/>
  
  <!-- Main Circle with Gradient -->
  <circle cx="250" cy="250" r="200" fill="url(#gradient)"/>
  
  <!-- Chat Bubble -->
  <path d="M150 200C150 178.954 166.954 162 188 162H312C333.046 162 350 178.954 350 200V300C350 321.046 333.046 338 312 338H188C166.954 338 150 321.046 150 300V200Z" fill="white"/>
  
  <!-- Flow Lines -->
  <path d="M200 220H300M200 280H250" stroke="#4C1D95" stroke-width="16" stroke-linecap="round"/>
  
  <!-- Dots -->
  <circle cx="280" cy="280" r="8" fill="#4C1D95"/>
  <circle cx="310" cy="280" r="8" fill="#4C1D95"/>
  
  <!-- Decorative Flow Elements -->
  <path d="M100 250C100 175 175 100 250 100" stroke="#8B5CF6" stroke-width="8" stroke-linecap="round" opacity="0.3"/>
  <path d="M400 250C400 325 325 400 250 400" stroke="#8B5CF6" stroke-width="8" stroke-linecap="round" opacity="0.3"/>
  
  <!-- Gradient Definition -->
  <defs>
    <linearGradient id="gradient" x1="250" y1="50" x2="250" y2="450" gradientUnits="userSpaceOnUse">
      <stop offset="0%" stop-color="#7C3AED"/>
      <stop offset="100%" stop-color="#4C1D95"/>
    </linearGradient>
  </defs>
</svg> 